<svg width="245" height="221" xmlns="http://www.w3.org/2000/svg"><g fill="none" fill-rule="evenodd"><path fill="#D22136" d="m100 171 19.991-19.991v49.95L100 221M100 20 119.991.009v49.95L100 70"/><path d="M0 20h100v50H50v101h50v50H0V20Z" fill="#3B3B6D"/><path fill="#FF2540" d="M50 171h50l19.991-19.991h-50z"/><path fill="#D22136" d="M69.991 151.009V70H50v101z"/><path fill="#FF2540" d="M0 20 22.073.009h97.918L100 20z"/><path fill="#D22136" d="M225 20 244.991.009v200.95L225 221"/><path fill="#FF2540" d="M125 171h50l19.991-19.991h-50z"/><path d="M224.991 20h-100v50h50v101h-50v50h100V20Z" fill="#3B3B6D"/><path fill="#FF2540" d="M125 20 147.073.009h97.918L225 20z"/></g></svg>
